<?xml version="1.0" encoding="UTF-8" standalone="no"?><svg xmlns="http://www.w3.org/2000/svg" xmlns:xlink="http://www.w3.org/1999/xlink" contentScriptType="application/ecmascript" contentStyleType="text/css" height="300px" preserveAspectRatio="none" style="width:542px;height:300px;" version="1.1" viewBox="0 0 542 300" width="542px" zoomAndPan="magnify"><defs><filter height="300%" id="fegz7v2xgr4pn" width="300%" x="-1" y="-1"><feGaussianBlur result="blurOut" stdDeviation="2.0"/><feColorMatrix in="blurOut" result="blurOut2" type="matrix" values="0 0 0 0 0 0 0 0 0 0 0 0 0 0 0 0 0 0 .4 0"/><feOffset dx="4.0" dy="4.0" in="blurOut2" result="blurOut3"/><feBlend in="SourceGraphic" in2="blurOut3" mode="normal"/></filter></defs><g><!--cluster de.fhro.inf.prg3.a07--><polygon fill="#FFFFFF" filter="url(#fegz7v2xgr4pn)" points="14,16,179,16,186,38.2969,520,38.2969,520,288,14,288,14,16" style="stroke: #000000; stroke-width: 2.0;"/><line style="stroke: #000000; stroke-width: 2.0;" x1="14" x2="186" y1="38.2969" y2="38.2969"/><text fill="#000000" font-family="sans-serif" font-size="14" font-weight="bold" lengthAdjust="spacingAndGlyphs" textLength="159" x="18" y="30.9951">de.fhro.inf.prg3.a07</text><!--cluster model--><polygon fill="#FFFFFF" filter="url(#fegz7v2xgr4pn)" points="298,43,352,43,359,65.2969,512,65.2969,512,280,298,280,298,43" style="stroke: #000000; stroke-width: 2.0;"/><line style="stroke: #000000; stroke-width: 2.0;" x1="298" x2="359" y1="65.2969" y2="65.2969"/><text fill="#000000" font-family="sans-serif" font-size="14" font-weight="bold" lengthAdjust="spacingAndGlyphs" textLength="48" x="302" y="57.9951">model</text><!--class OpenMensaAPI--><rect fill="#FEFECE" filter="url(#fegz7v2xgr4pn)" height="60.8047" id="OpenMensaAPI" style="stroke: #A80036; stroke-width: 1.5;" width="249" x="22.5" y="140.5"/><ellipse cx="97.25" cy="156.5" fill="#B4A7E5" rx="11" ry="11" style="stroke: #A80036; stroke-width: 1.0;"/><path d="M93.1719,152.2656 L93.1719,150.1094 L100.5625,150.1094 L100.5625,152.2656 L98.0938,152.2656 L98.0938,160.3438 L100.5625,160.3438 L100.5625,162.5 L93.1719,162.5 L93.1719,160.3438 L95.6406,160.3438 L95.6406,152.2656 L93.1719,152.2656 Z "/><text fill="#000000" font-family="sans-serif" font-size="12" font-style="italic" lengthAdjust="spacingAndGlyphs" textLength="91" x="117.75" y="160.6543">OpenMensaAPI</text><line style="stroke: #A80036; stroke-width: 1.5;" x1="23.5" x2="270.5" y1="172.5" y2="172.5"/><line style="stroke: #A80036; stroke-width: 1.5;" x1="23.5" x2="270.5" y1="180.5" y2="180.5"/><text fill="#000000" font-family="sans-serif" font-size="11" lengthAdjust="spacingAndGlyphs" textLength="237" x="28.5" y="194.7104">getMeals(date: String): Call&lt;List&lt;Meal&gt;&gt;</text><!--class Meal--><rect fill="#FEFECE" filter="url(#fegz7v2xgr4pn)" height="201.6563" id="Meal" style="stroke: #A80036; stroke-width: 1.5;" width="197" x="306.5" y="70"/><ellipse cx="386.25" cy="86" fill="#ADD1B2" rx="11" ry="11" style="stroke: #A80036; stroke-width: 1.0;"/><path d="M389.2188,91.6406 Q388.6406,91.9375 388,92.0859 Q387.3594,92.2344 386.6563,92.2344 Q384.1563,92.2344 382.8359,90.5859 Q381.5156,88.9375 381.5156,85.8125 Q381.5156,82.6875 382.8359,81.0313 Q384.1563,79.375 386.6563,79.375 Q387.3594,79.375 388.0078,79.5313 Q388.6563,79.6875 389.2188,79.9844 L389.2188,82.7031 Q388.5938,82.125 388,81.8516 Q387.4063,81.5781 386.7813,81.5781 Q385.4375,81.5781 384.75,82.6484 Q384.0625,83.7188 384.0625,85.8125 Q384.0625,87.9063 384.75,88.9766 Q385.4375,90.0469 386.7813,90.0469 Q387.4063,90.0469 388,89.7734 Q388.5938,89.5 389.2188,88.9219 L389.2188,91.6406 Z "/><text fill="#000000" font-family="sans-serif" font-size="12" lengthAdjust="spacingAndGlyphs" textLength="29" x="406.75" y="90.1543">Meal</text><line style="stroke: #A80036; stroke-width: 1.5;" x1="307.5" x2="502.5" y1="102" y2="102"/><rect fill="none" height="6" style="stroke: #C82930; stroke-width: 1.0;" width="6" x="314.5" y="110.9023"/><text fill="#000000" font-family="sans-serif" font-size="11" lengthAdjust="spacingAndGlyphs" textLength="32" x="326.5" y="116.2104">id: int</text><rect fill="none" height="6" style="stroke: #C82930; stroke-width: 1.0;" width="6" x="314.5" y="123.707"/><text fill="#000000" font-family="sans-serif" font-size="11" lengthAdjust="spacingAndGlyphs" textLength="74" x="326.5" y="129.0151">name: String</text><rect fill="none" height="6" style="stroke: #C82930; stroke-width: 1.0;" width="6" x="314.5" y="136.5117"/><text fill="#000000" font-family="sans-serif" font-size="11" lengthAdjust="spacingAndGlyphs" textLength="91" x="326.5" y="141.8198">category: String</text><rect fill="none" height="6" style="stroke: #C82930; stroke-width: 1.0;" width="6" x="314.5" y="149.3164"/><text fill="#000000" font-family="sans-serif" font-size="11" lengthAdjust="spacingAndGlyphs" textLength="112" x="326.5" y="154.6245">notes: List&lt;String&gt;</text><line style="stroke: #A80036; stroke-width: 1.5;" x1="307.5" x2="502.5" y1="161.2188" y2="161.2188"/><ellipse cx="317.5" cy="173.1211" fill="#84BE84" rx="3" ry="3" style="stroke: #038048; stroke-width: 1.0;"/><text fill="#000000" font-family="sans-serif" font-size="11" lengthAdjust="spacingAndGlyphs" textLength="58" x="326.5" y="175.4292">getId(): int</text><ellipse cx="317.5" cy="185.9258" fill="#84BE84" rx="3" ry="3" style="stroke: #038048; stroke-width: 1.0;"/><text fill="#000000" font-family="sans-serif" font-size="11" lengthAdjust="spacingAndGlyphs" textLength="68" x="326.5" y="188.2339">setId(id: int)</text><ellipse cx="317.5" cy="198.7305" fill="#84BE84" rx="3" ry="3" style="stroke: #038048; stroke-width: 1.0;"/><text fill="#000000" font-family="sans-serif" font-size="11" lengthAdjust="spacingAndGlyphs" textLength="101" x="326.5" y="201.0386">getName(): String</text><ellipse cx="317.5" cy="211.5352" fill="#84BE84" rx="3" ry="3" style="stroke: #038048; stroke-width: 1.0;"/><text fill="#000000" font-family="sans-serif" font-size="11" lengthAdjust="spacingAndGlyphs" textLength="133" x="326.5" y="213.8433">setName(name: String)</text><ellipse cx="317.5" cy="224.3398" fill="#84BE84" rx="3" ry="3" style="stroke: #038048; stroke-width: 1.0;"/><text fill="#000000" font-family="sans-serif" font-size="11" lengthAdjust="spacingAndGlyphs" textLength="119" x="326.5" y="226.6479">getCategory(): String</text><ellipse cx="317.5" cy="237.1445" fill="#84BE84" rx="3" ry="3" style="stroke: #038048; stroke-width: 1.0;"/><text fill="#000000" font-family="sans-serif" font-size="11" lengthAdjust="spacingAndGlyphs" textLength="168" x="326.5" y="239.4526">setCategory(category: String)</text><ellipse cx="317.5" cy="249.9492" fill="#84BE84" rx="3" ry="3" style="stroke: #038048; stroke-width: 1.0;"/><text fill="#000000" font-family="sans-serif" font-size="11" lengthAdjust="spacingAndGlyphs" textLength="139" x="326.5" y="252.2573">getNotes(): List&lt;String&gt;</text><ellipse cx="317.5" cy="262.7539" fill="#84BE84" rx="3" ry="3" style="stroke: #038048; stroke-width: 1.0;"/><text fill="#000000" font-family="sans-serif" font-size="11" lengthAdjust="spacingAndGlyphs" textLength="171" x="326.5" y="265.062">setNotes(notes: List&lt;String&gt;)</text><!--
@startuml APISpec

package de.fhro.inf.prg3.a07 {
    interface OpenMensaAPI {
        getMeals(date: String): Call<List<Meal>>
    }

    package model {
        class Meal {
            -id: int
            -name: String
            -category: String
            -notes: List<String>

            +getId(): int
            +setId(id: int)
            +getName(): String
            +setName(name: String)
            +getCategory(): String
            +setCategory(category: String)
            +getNotes(): List<String>
            +setNotes(notes: List<String>)
        }
    }
}

@enduml

PlantUML version 1.2017.19(Sun Nov 12 12:46:22 CET 2017)
(GPL source distribution)
Java Runtime: OpenJDK Runtime Environment
JVM: OpenJDK 64-Bit Server VM
Java Version: 1.8.0_144-b01
Operating System: Linux
OS Version: 4.13.12-1-ARCH
Default Encoding: UTF-8
Language: en
Country: US
--></g></svg>